<?xml version="1.0" ?><svg id="Layer_1" style="enable-background:new 0 0 512 512;" version="1.1" viewBox="0 0 512 512" xml:space="preserve" xmlns="http://www.w3.org/2000/svg" xmlns:xlink="http://www.w3.org/1999/xlink"><style type="text/css">
	.st0{fill:#ED5565;}
	.st1{fill:#FFFFFF;}
</style><circle class="st0" cx="256" cy="256" r="250"/><g id="Layer_2"><g id="XMLID_65_"><path class="st1" d="M355.3,142.2l-85.1,12.6l22.5,28.2l-47.9,41.2c-0.5,0.4-1.1,0.3-1.4-0.2l-25.1-31.9l0.1-0.1    l-4-5.4c-2.7-3.6-7.7-4.3-11.2-1.4L131,244.8c0.1,0.1,0.1,0.1,0.2,0.2c3.4,3.5,6.7,7.1,10.1,10.7l64.8-53.4c0.5-0.4,1-0.3,1.4,0.2    l33.6,42.6c0.4,0.5,1,0.5,1.4,0.2l0.3,0.4l59-50.7c0,0,0.1,0,0.1-0.1l21.8,27.5L355.3,142.2z" id="XMLID_71_"/><path class="st1" d="M381,250.3l-89.7,13.3l23.6,29.7l-50.4,43.4c-0.5,0.4-1.1,0.3-1.5-0.2L236.5,303l0.1-0.1    l-4.2-5.7c-2.8-3.8-8.1-4.5-11.7-1.5l-76.1,62.7c0.1,0.1,0.2,0.1,0.2,0.2c3.5,3.8,7.1,7.5,10.7,11.2l68.4-56.3    c0.5-0.4,1.1-0.3,1.5,0.2l35.4,44.9c0.4,0.5,1,0.5,1.5,0.2l0.3,0.4l62.2-53.4c0,0,0.1,0,0.1-0.1l23.1,29L381,250.3z" id="XMLID_66_"/></g></g></svg>